<svg width="612" height="122" viewBox="0 0 612 122" fill="none" xmlns="http://www.w3.org/2000/svg">
<path d="M94.296 32.04V121H79.704V60.072L52.568 121H42.456L15.192 60.072V121H0.6V32.04H16.344L47.576 101.8L78.68 32.04H94.296ZM179.139 32.04V88.744C179.139 95.4853 180.888 100.563 184.387 103.976C187.971 107.389 192.92 109.096 199.235 109.096C205.635 109.096 210.584 107.389 214.083 103.976C217.667 100.563 219.459 95.4853 219.459 88.744V32.04H234.051V88.488C234.051 95.7413 232.472 101.885 229.315 106.92C226.158 111.955 221.934 115.709 216.643 118.184C211.352 120.659 205.507 121.896 199.107 121.896C192.707 121.896 186.862 120.659 181.571 118.184C176.366 115.709 172.227 111.955 169.155 106.92C166.083 101.885 164.547 95.7413 164.547 88.488V32.04H179.139ZM212.419 12.968L184.131 26.92V16.168L212.419 0.551994V12.968ZM333.562 121.896C327.589 121.896 322.213 120.872 317.434 118.824C312.655 116.691 308.901 113.704 306.17 109.864C303.439 106.024 302.074 101.544 302.074 96.424H317.69C318.031 100.264 319.525 103.421 322.17 105.896C324.901 108.371 328.698 109.608 333.562 109.608C338.597 109.608 342.522 108.413 345.338 106.024C348.154 103.549 349.562 100.392 349.562 96.552C349.562 93.5653 348.666 91.1333 346.874 89.256C345.167 87.3787 342.991 85.928 340.346 84.904C337.786 83.88 334.202 82.7707 329.594 81.576C323.791 80.04 319.055 78.504 315.386 76.968C311.802 75.3467 308.73 72.872 306.17 69.544C303.61 66.216 302.33 61.7787 302.33 56.232C302.33 51.112 303.61 46.632 306.17 42.792C308.73 38.952 312.314 36.008 316.922 33.96C321.53 31.912 326.863 30.888 332.922 30.888C341.541 30.888 348.581 33.064 354.042 37.416C359.589 41.6827 362.661 47.5707 363.258 55.08H347.13C346.874 51.8373 345.338 49.064 342.522 46.76C339.706 44.456 335.994 43.304 331.386 43.304C327.205 43.304 323.791 44.3707 321.146 46.504C318.501 48.6373 317.178 51.7093 317.178 55.72C317.178 58.4507 317.989 60.712 319.61 62.504C321.317 64.2107 323.45 65.576 326.01 66.6C328.57 67.624 332.069 68.7333 336.506 69.928C342.394 71.5493 347.173 73.1707 350.842 74.792C354.597 76.4133 357.754 78.9307 360.314 82.344C362.959 85.672 364.282 90.152 364.282 95.784C364.282 100.307 363.045 104.573 360.57 108.584C358.181 112.595 354.639 115.837 349.946 118.312C345.338 120.701 339.877 121.896 333.562 121.896ZM447.292 43.816V69.928H478.012V81.832H447.292V109.096H481.852V121H432.7V31.912H481.852V43.816H447.292ZM580.337 121.896C574.364 121.896 568.988 120.872 564.209 118.824C559.43 116.691 555.676 113.704 552.945 109.864C550.214 106.024 548.849 101.544 548.849 96.424H564.465C564.806 100.264 566.3 103.421 568.945 105.896C571.676 108.371 575.473 109.608 580.337 109.608C585.372 109.608 589.297 108.413 592.113 106.024C594.929 103.549 596.337 100.392 596.337 96.552C596.337 93.5653 595.441 91.1333 593.649 89.256C591.942 87.3787 589.766 85.928 587.121 84.904C584.561 83.88 580.977 82.7707 576.369 81.576C570.566 80.04 565.83 78.504 562.161 76.968C558.577 75.3467 555.505 72.872 552.945 69.544C550.385 66.216 549.105 61.7787 549.105 56.232C549.105 51.112 550.385 46.632 552.945 42.792C555.505 38.952 559.089 36.008 563.697 33.96C568.305 31.912 573.638 30.888 579.697 30.888C588.316 30.888 595.356 33.064 600.817 37.416C606.364 41.6827 609.436 47.5707 610.033 55.08H593.905C593.649 51.8373 592.113 49.064 589.297 46.76C586.481 44.456 582.769 43.304 578.161 43.304C573.98 43.304 570.566 44.3707 567.921 46.504C565.276 48.6373 563.953 51.7093 563.953 55.72C563.953 58.4507 564.764 60.712 566.385 62.504C568.092 64.2107 570.225 65.576 572.785 66.6C575.345 67.624 578.844 68.7333 583.281 69.928C589.169 71.5493 593.948 73.1707 597.617 74.792C601.372 76.4133 604.529 78.9307 607.089 82.344C609.734 85.672 611.057 90.152 611.057 95.784C611.057 100.307 609.82 104.573 607.345 108.584C604.956 112.595 601.414 115.837 596.721 118.312C592.113 120.701 586.652 121.896 580.337 121.896Z" fill="white"/>
</svg>

