<svg width="1524" height="267" viewBox="0 0 1524 267" fill="none" xmlns="http://www.w3.org/2000/svg">
<path d="M166.928 85.7164C165.545 80.591 163.511 76.0758 160.826 72.1708C158.141 68.1843 154.846 64.8081 150.941 62.042C147.036 59.2759 142.562 57.2014 137.518 55.8183C132.474 54.3539 126.941 53.6217 120.921 53.6217C108.799 53.6217 98.3043 56.5505 89.4366 62.4081C80.6502 68.2657 73.857 76.808 69.057 88.035C64.2571 99.1807 61.8571 112.726 61.8571 128.672C61.8571 144.699 64.1757 158.367 68.813 169.675C73.4502 180.984 80.1621 189.607 88.9484 195.546C97.7348 201.485 108.392 204.455 120.921 204.455C131.985 204.455 141.341 202.665 148.989 199.085C156.717 195.424 162.575 190.258 166.561 183.587C170.548 176.916 172.541 169.065 172.541 160.035L183.768 161.377H122.996V117.323H230.751V150.394C230.751 172.767 225.992 191.926 216.473 207.872C207.036 223.817 194.019 236.061 177.422 244.603C160.907 253.146 141.911 257.417 120.433 257.417C96.5958 257.417 75.6468 252.251 57.5859 241.919C39.525 231.587 25.4506 216.861 15.3625 197.743C5.27443 178.543 0.230396 155.763 0.230396 129.404C0.230396 108.903 3.28122 90.7198 9.38288 74.8555C15.4845 58.9098 23.9862 45.4048 34.8878 34.3405C45.8708 23.2762 58.5622 14.8966 72.9621 9.20168C87.4434 3.50681 103.023 0.65937 119.701 0.65937C134.182 0.65937 147.646 2.73393 160.094 6.88306C172.622 11.0322 183.687 16.8898 193.287 24.4558C202.968 32.0219 210.819 41.0116 216.839 51.4251C222.859 61.8386 226.602 73.269 228.066 85.7164H166.928ZM317.476 257.173C305.517 257.173 294.9 255.18 285.625 251.193C276.432 247.125 269.151 241.024 263.782 232.888C258.493 224.671 255.849 214.38 255.849 202.014C255.849 191.6 257.68 182.814 261.341 175.655C265.002 168.496 270.046 162.679 276.473 158.204C282.9 153.73 290.303 150.353 298.683 148.075C307.063 145.716 316.012 144.13 325.53 143.316C336.188 142.34 344.771 141.323 351.279 140.265C357.788 139.126 362.506 137.54 365.435 135.506C368.445 133.391 369.95 130.421 369.95 126.597V125.987C369.95 119.723 367.794 114.882 363.483 111.465C359.171 108.048 353.354 106.34 346.032 106.34C338.14 106.34 331.795 108.048 326.995 111.465C322.195 114.882 319.144 119.601 317.842 125.621L262.805 123.669C264.432 112.279 268.622 102.11 275.375 93.1604C282.208 84.13 291.564 77.0521 303.442 71.9267C315.401 66.7199 329.761 64.1166 346.52 64.1166C358.479 64.1166 369.503 65.5403 379.591 68.3877C389.679 71.1538 398.465 75.2216 405.95 80.591C413.435 85.8791 419.211 92.3876 423.279 100.116C427.428 107.845 429.502 116.672 429.502 126.597V254H373.367V227.885H371.903C368.567 234.231 364.296 239.6 359.089 243.993C353.964 248.386 347.903 251.681 340.906 253.878C333.991 256.075 326.181 257.173 317.476 257.173ZM335.903 218.122C342.33 218.122 348.106 216.821 353.232 214.217C358.438 211.614 362.588 208.034 365.679 203.478C368.771 198.841 370.316 193.472 370.316 187.37V169.553C368.608 170.448 366.533 171.262 364.093 171.994C361.733 172.726 359.13 173.418 356.283 174.068C353.435 174.719 350.506 175.289 347.496 175.777C344.486 176.265 341.598 176.712 338.832 177.119C333.218 178.014 328.418 179.397 324.432 181.268C320.527 183.139 317.517 185.58 315.401 188.59C313.368 191.519 312.351 195.017 312.351 199.085C312.351 205.268 314.547 209.987 318.94 213.241C323.415 216.495 329.069 218.122 335.903 218.122ZM523.946 4.0763V254H464.272V4.0763H523.946ZM619.885 4.0763V254H560.211V4.0763H619.885ZM777.084 173.092V66.5572H836.636V254H779.769V219.099H777.816C773.667 230.57 766.589 239.681 756.583 246.434C746.657 253.105 734.657 256.441 720.583 256.441C707.81 256.441 696.583 253.512 686.902 247.654C677.221 241.797 669.695 233.62 664.326 223.126C658.956 212.549 656.231 200.183 656.149 186.028V66.5572H715.824V174.312C715.905 184.482 718.59 192.495 723.878 198.353C729.166 204.211 736.366 207.139 745.478 207.139C751.417 207.139 756.745 205.838 761.464 203.234C766.264 200.55 770.047 196.685 772.813 191.641C775.661 186.516 777.084 180.333 777.084 173.092ZM960.399 257.539C940.629 257.539 923.667 253.471 909.511 245.336C895.436 237.2 884.616 225.892 877.05 211.41C869.484 196.848 865.701 180.007 865.701 160.889C865.701 141.689 869.484 124.848 877.05 110.367C884.697 95.8045 895.558 84.4554 909.633 76.3199C923.789 68.1843 940.67 64.1166 960.277 64.1166C977.605 64.1166 992.697 67.2488 1005.55 73.5131C1018.49 79.7775 1028.57 88.6452 1035.82 100.116C1043.14 111.506 1047 124.889 1047.41 140.265H991.639C990.5 130.665 987.246 123.14 981.876 117.689C976.588 112.238 969.673 109.513 961.131 109.513C954.216 109.513 948.155 111.465 942.948 115.37C937.741 119.194 933.673 124.889 930.745 132.455C927.897 139.94 926.473 149.214 926.473 160.279C926.473 171.343 927.897 180.699 930.745 188.346C933.673 195.912 937.741 201.648 942.948 205.553C948.155 209.377 954.216 211.288 961.131 211.288C966.663 211.288 971.544 210.109 975.775 207.749C980.087 205.39 983.626 201.933 986.392 197.377C989.158 192.739 990.907 187.126 991.639 180.536H1047.41C1046.84 195.994 1042.97 209.499 1035.82 221.051C1028.74 232.604 1018.77 241.593 1005.92 248.02C993.144 254.366 977.971 257.539 960.399 257.539ZM1163.73 257.539C1143.96 257.539 1126.99 253.471 1112.84 245.336C1098.76 237.2 1087.94 225.892 1080.38 211.41C1072.81 196.848 1069.03 180.007 1069.03 160.889C1069.03 141.689 1072.81 124.848 1080.38 110.367C1088.03 95.8045 1098.89 84.4554 1112.96 76.3199C1127.12 68.1843 1144 64.1166 1163.6 64.1166C1180.93 64.1166 1196.02 67.2488 1208.88 73.5131C1221.81 79.7775 1231.9 88.6452 1239.14 100.116C1246.46 111.506 1250.33 124.889 1250.74 140.265H1194.97C1193.83 130.665 1190.57 123.14 1185.2 117.689C1179.92 112.238 1173 109.513 1164.46 109.513C1157.54 109.513 1151.48 111.465 1146.28 115.37C1141.07 119.194 1137 124.889 1134.07 132.455C1131.22 139.94 1129.8 149.214 1129.8 160.279C1129.8 171.343 1131.22 180.699 1134.07 188.346C1137 195.912 1141.07 201.648 1146.28 205.553C1151.48 209.377 1157.54 211.288 1164.46 211.288C1169.99 211.288 1174.87 210.109 1179.1 207.749C1183.41 205.39 1186.95 201.933 1189.72 197.377C1192.49 192.739 1194.23 187.126 1194.97 180.536H1250.74C1250.17 195.994 1246.3 209.499 1239.14 221.051C1232.06 232.604 1222.1 241.593 1209.24 248.02C1196.47 254.366 1181.3 257.539 1163.73 257.539Z" fill="#FFFF"/>
<path fill-rule="evenodd" clip-rule="evenodd" d="M1338 31C1310.39 31 1288 53.3858 1288 81V217C1288 244.614 1310.39 267 1338 267H1474C1501.61 267 1524 244.614 1524 217V81C1524 53.3858 1501.61 31 1474 31H1338ZM1408.49 185.49H1379.63V175.22H1388.73V147.01H1379.63V136.74H1399.52V175.22H1408.49V185.49ZM1400.95 117.89C1400.95 119.883 1400.26 121.53 1398.87 122.83C1397.49 124.043 1395.97 124.65 1394.32 124.65C1392.59 124.65 1391.03 124.043 1389.64 122.83C1388.26 121.53 1387.56 119.883 1387.56 117.89C1387.56 115.897 1388.26 114.25 1389.64 112.95C1391.03 111.65 1392.59 111 1394.32 111C1395.97 111 1397.49 111.65 1398.87 112.95C1400.26 114.25 1400.95 115.897 1400.95 117.89ZM1362.92 166.38H1339V155.85H1362.92V166.38ZM1457.86 184.71C1461.07 183.323 1463.84 181.46 1466.18 179.12C1468.52 176.78 1470.34 174.093 1471.64 171.06C1473.03 167.94 1473.72 164.603 1473.72 161.05C1473.72 157.583 1473.03 154.29 1471.64 151.17C1470.34 148.05 1468.52 145.32 1466.18 142.98C1463.84 140.727 1461.07 138.95 1457.86 137.65C1454.66 136.263 1451.23 135.57 1447.59 135.57C1443.95 135.57 1440.53 136.263 1437.32 137.65C1434.2 138.95 1431.47 140.727 1429.13 142.98C1426.79 145.32 1424.93 148.05 1423.54 151.17C1422.24 154.29 1421.59 157.583 1421.59 161.05C1421.59 164.69 1422.24 168.027 1423.54 171.06C1424.93 174.093 1426.79 176.78 1429.13 179.12C1431.47 181.46 1434.2 183.323 1437.32 184.71C1440.53 186.01 1443.95 186.66 1447.59 186.66C1451.23 186.66 1454.66 186.01 1457.86 184.71ZM1441.48 174.96C1439.66 174.18 1438.1 173.097 1436.8 171.71C1435.42 170.41 1434.33 168.85 1433.55 167.03C1432.77 165.21 1432.38 163.26 1432.38 161.18C1432.38 159.1 1432.77 157.15 1433.55 155.33C1434.33 153.51 1435.42 151.907 1436.8 150.52C1438.1 149.133 1439.66 148.05 1441.48 147.27C1443.3 146.49 1445.25 146.1 1447.33 146.1C1449.41 146.1 1451.36 146.49 1453.18 147.27C1455 148.05 1456.61 149.133 1457.99 150.52C1459.38 151.907 1460.46 153.51 1461.24 155.33C1462.02 157.15 1462.41 159.1 1462.41 161.18C1462.41 163.26 1462.02 165.21 1461.24 167.03C1460.46 168.85 1459.38 170.41 1457.99 171.71C1456.61 173.097 1455 174.18 1453.18 174.96C1451.36 175.74 1449.41 176.13 1447.33 176.13C1445.25 176.13 1443.3 175.74 1441.48 174.96Z" fill="white"/>
</svg>

