<svg width="236" height="236" viewBox="0 0 236 236" fill="none" xmlns="http://www.w3.org/2000/svg">
<path fill-rule="evenodd" clip-rule="evenodd" d="M50 0C22.3858 0 0 22.3858 0 50V186C0 213.614 22.3858 236 50 236H186C213.614 236 236 213.614 236 186V50C236 22.3858 213.614 0 186 0H50ZM120.495 154.49H91.6346V144.22H100.735V116.01H91.6346V105.74H111.525V144.22H120.495V154.49ZM112.955 86.89C112.955 88.8833 112.261 90.53 110.875 91.83C109.488 93.0433 107.971 93.65 106.325 93.65C104.591 93.65 103.031 93.0433 101.645 91.83C100.258 90.53 99.5646 88.8833 99.5646 86.89C99.5646 84.8967 100.258 83.25 101.645 81.95C103.031 80.65 104.591 80 106.325 80C107.971 80 109.488 80.65 110.875 81.95C112.261 83.25 112.955 84.8967 112.955 86.89ZM74.92 135.38H51V124.85H74.92V135.38ZM169.864 153.71C173.07 152.323 175.844 150.46 178.184 148.12C180.524 145.78 182.344 143.093 183.644 140.06C185.03 136.94 185.724 133.603 185.724 130.05C185.724 126.583 185.03 123.29 183.644 120.17C182.344 117.05 180.524 114.32 178.184 111.98C175.844 109.727 173.07 107.95 169.864 106.65C166.657 105.263 163.234 104.57 159.594 104.57C155.954 104.57 152.53 105.263 149.324 106.65C146.204 107.95 143.474 109.727 141.134 111.98C138.794 114.32 136.93 117.05 135.544 120.17C134.244 123.29 133.594 126.583 133.594 130.05C133.594 133.69 134.244 137.027 135.544 140.06C136.93 143.093 138.794 145.78 141.134 148.12C143.474 150.46 146.204 152.323 149.324 153.71C152.53 155.01 155.954 155.66 159.594 155.66C163.234 155.66 166.657 155.01 169.864 153.71ZM153.484 143.96C151.664 143.18 150.104 142.097 148.804 140.71C147.417 139.41 146.334 137.85 145.554 136.03C144.774 134.21 144.384 132.26 144.384 130.18C144.384 128.1 144.774 126.15 145.554 124.33C146.334 122.51 147.417 120.907 148.804 119.52C150.104 118.133 151.664 117.05 153.484 116.27C155.304 115.49 157.254 115.1 159.334 115.1C161.414 115.1 163.364 115.49 165.184 116.27C167.004 117.05 168.607 118.133 169.994 119.52C171.38 120.907 172.464 122.51 173.244 124.33C174.024 126.15 174.414 128.1 174.414 130.18C174.414 132.26 174.024 134.21 173.244 136.03C172.464 137.85 171.38 139.41 169.994 140.71C168.607 142.097 167.004 143.18 165.184 143.96C163.364 144.74 161.414 145.13 159.334 145.13C157.254 145.13 155.304 144.74 153.484 143.96Z" fill="black"/>
</svg>
